REM GoldWave
FILE "Зазнобин В.М. Беседа после фильма _28 панфиловцев_ (3 января 2017 г.).m4a" BINARY
  TRACK 01 AUDIO
    TITLE "00:00:00.00000"
    PERFORMER "Владимир Михайлович Зазнобин. Видеоархив"
    INDEX 01 00:00:00
  TRACK 02 AUDIO
    TITLE "00:00:12.77878"
    PERFORMER "Владимир Михайлович Зазнобин. Видеоархив"
    INDEX 01 00:12:58
  TRACK 03 AUDIO
    TITLE "00:00:26.44227"
    PERFORMER "Владимир Михайлович Зазнобин. Видеоархив"
    INDEX 01 00:26:33
  TRACK 04 AUDIO
    TITLE "00:00:39.81084"
    PERFORMER "Владимир Михайлович Зазнобин. Видеоархив"
    INDEX 01 00:39:61
  TRACK 05 AUDIO
    TITLE "00:00:53.44508"
    PERFORMER "Владимир Михайлович Зазнобин. Видеоархив"
    INDEX 01 00:53:33
  TRACK 06 AUDIO
    TITLE "00:01:07.16102"
    PERFORMER "Владимир Михайлович Зазнобин. Видеоархив"
    INDEX 01 01:07:12
  TRACK 07 AUDIO
    TITLE "00:01:20.39957"
    PERFORMER "Владимир Михайлович Зазнобин. Видеоархив"
    INDEX 01 01:20:30
  TRACK 08 AUDIO
    TITLE "00:01:36.26989"
    PERFORMER "Владимир Михайлович Зазнобин. Видеоархив"
    INDEX 01 01:36:20
  TRACK 09 AUDIO
    TITLE "00:01:50.22036"
    PERFORMER "Владимир Михайлович Зазнобин. Видеоархив"
    INDEX 01 01:50:17
  TRACK 10 AUDIO
    TITLE "00:02:04.97100"
    PERFORMER "Владимир Михайлович Зазнобин. Видеоархив"
    INDEX 01 02:04:73
  TRACK 11 AUDIO
    TITLE "00:02:18.86621"
    PERFORMER "Владимир Михайлович Зазнобин. Видеоархив"
    INDEX 01 02:18:65
  TRACK 12 AUDIO
    TITLE "00:02:34.57955"
    PERFORMER "Владимир Михайлович Зазнобин. Видеоархив"
    INDEX 01 02:34:43
  TRACK 13 AUDIO
    TITLE "00:02:49.62646"
    PERFORMER "Владимир Михайлович Зазнобин. Видеоархив"
    INDEX 01 02:49:47
  TRACK 14 AUDIO
    TITLE "00:03:03.85558"
    PERFORMER "Владимир Михайлович Зазнобин. Видеоархив"
    INDEX 01 03:03:64
  TRACK 15 AUDIO
    TITLE "00:03:18.18408"
    PERFORMER "Владимир Михайлович Зазнобин. Видеоархив"
    INDEX 01 03:18:14
  TRACK 16 AUDIO
    TITLE "00:03:30.93594"
    PERFORMER "Владимир Михайлович Зазнобин. Видеоархив"
    INDEX 01 03:30:70
  TRACK 17 AUDIO
    TITLE "00:03:44.36676"
    PERFORMER "Владимир Михайлович Зазнобин. Видеоархив"
    INDEX 01 03:44:28
  TRACK 18 AUDIO
    TITLE "00:03:57.53238"
    PERFORMER "Владимир Михайлович Зазнобин. Видеоархив"
    INDEX 01 03:57:40
  TRACK 19 AUDIO
    TITLE "00:04:10.56057"
    PERFORMER "Владимир Михайлович Зазнобин. Видеоархив"
    INDEX 01 04:10:42
  TRACK 20 AUDIO
    TITLE "00:04:24.27002"
    PERFORMER "Владимир Михайлович Зазнобин. Видеоархив"
    INDEX 01 04:24:20
  TRACK 21 AUDIO
    TITLE "00:04:38.05238"
    PERFORMER "Владимир Михайлович Зазнобин. Видеоархив"
    INDEX 01 04:38:04
  TRACK 22 AUDIO
    TITLE "00:04:52.21973"
    PERFORMER "Владимир Михайлович Зазнобин. Видеоархив"
    INDEX 01 04:52:16
  TRACK 23 AUDIO
    TITLE "00:05:05.28322"
    PERFORMER "Владимир Михайлович Зазнобин. Видеоархив"
    INDEX 01 05:05:21
  TRACK 24 AUDIO
    TITLE "00:05:20.25166"
    PERFORMER "Владимир Михайлович Зазнобин. Видеоархив"
    INDEX 01 05:20:19
  TRACK 25 AUDIO
    TITLE "00:05:34.25043"
    PERFORMER "Владимир Михайлович Зазнобин. Видеоархив"
    INDEX 01 05:34:19
  TRACK 26 AUDIO
    TITLE "00:05:49.55045"
    PERFORMER "Владимир Михайлович Зазнобин. Видеоархив"
    INDEX 01 05:49:41
  TRACK 27 AUDIO
    TITLE "00:06:04.99490"
    PERFORMER "Владимир Михайлович Зазнобин. Видеоархив"
    INDEX 01 06:05:00
  TRACK 28 AUDIO
    TITLE "00:06:18.06302"
    PERFORMER "Владимир Михайлович Зазнобин. Видеоархив"
    INDEX 01 06:18:05
  TRACK 29 AUDIO
    TITLE "00:06:34.16968"
    PERFORMER "Владимир Михайлович Зазнобин. Видеоархив"
    INDEX 01 06:34:13
  TRACK 30 AUDIO
    TITLE "00:06:51.22746"
    PERFORMER "Владимир Михайлович Зазнобин. Видеоархив"
    INDEX 01 06:51:17
  TRACK 31 AUDIO
    TITLE "00:07:05.72408"
    PERFORMER "Владимир Михайлович Зазнобин. Видеоархив"
    INDEX 01 07:05:54
  TRACK 32 AUDIO
    TITLE "00:07:19.54172"
    PERFORMER "Владимир Михайлович Зазнобин. Видеоархив"
    INDEX 01 07:19:41
  TRACK 33 AUDIO
    TITLE "00:07:32.77565"
    PERFORMER "Владимир Михайлович Зазнобин. Видеоархив"
    INDEX 01 07:32:58
  TRACK 34 AUDIO
    TITLE "00:07:46.01651"
    PERFORMER "Владимир Михайлович Зазнобин. Видеоархив"
    INDEX 01 07:46:01
  TRACK 35 AUDIO
    TITLE "00:08:00.92875"
    PERFORMER "Владимир Михайлович Зазнобин. Видеоархив"
    INDEX 01 08:00:70
  TRACK 36 AUDIO
    TITLE "00:08:14.19610"
    PERFORMER "Владимир Михайлович Зазнобин. Видеоархив"
    INDEX 01 08:14:15
  TRACK 37 AUDIO
    TITLE "00:08:32.08608"
    PERFORMER "Владимир Михайлович Зазнобин. Видеоархив"
    INDEX 01 08:32:06
  TRACK 38 AUDIO
    TITLE "00:08:46.68347"
    PERFORMER "Владимир Михайлович Зазнобин. Видеоархив"
    INDEX 01 08:46:51
  TRACK 39 AUDIO
    TITLE "00:09:00.81971"
    PERFORMER "Владимир Михайлович Зазнобин. Видеоархив"
    INDEX 01 09:00:61
  TRACK 40 AUDIO
    TITLE "00:09:13.96955"
    PERFORMER "Владимир Михайлович Зазнобин. Видеоархив"
    INDEX 01 09:13:73
  TRACK 41 AUDIO
    TITLE "00:09:27.43381"
    PERFORMER "Владимир Михайлович Зазнобин. Видеоархив"
    INDEX 01 09:27:33
  TRACK 42 AUDIO
    TITLE "00:09:42.37483"
    PERFORMER "Владимир Михайлович Зазнобин. Видеоархив"
    INDEX 01 09:42:28
  TRACK 43 AUDIO
    TITLE "00:09:55.55349"
    PERFORMER "Владимир Михайлович Зазнобин. Видеоархив"
    INDEX 01 09:55:42
  TRACK 44 AUDIO
    TITLE "00:10:08.45116"
    PERFORMER "Владимир Михайлович Зазнобин. Видеоархив"
    INDEX 01 10:08:34
  TRACK 45 AUDIO
    TITLE "00:10:21.51279"
    PERFORMER "Владимир Михайлович Зазнобин. Видеоархив"
    INDEX 01 10:21:38
  TRACK 46 AUDIO
    TITLE "00:10:34.81542"
    PERFORMER "Владимир Михайлович Зазнобин. Видеоархив"
    INDEX 01 10:34:61
  TRACK 47 AUDIO
    TITLE "00:10:47.94299"
    PERFORMER "Владимир Михайлович Зазнобин. Видеоархив"
    INDEX 01 10:47:71
  TRACK 48 AUDIO
    TITLE "00:11:02.67689"
    PERFORMER "Владимир Михайлович Зазнобин. Видеоархив"
    INDEX 01 11:02:51
  TRACK 49 AUDIO
    TITLE "00:11:18.53327"
    PERFORMER "Владимир Михайлович Зазнобин. Видеоархив"
    INDEX 01 11:18:40
  TRACK 50 AUDIO
    TITLE "00:11:32.34211"
    PERFORMER "Владимир Михайлович Зазнобин. Видеоархив"
    INDEX 01 11:32:26
  TRACK 51 AUDIO
    TITLE "00:11:45.86161"
    PERFORMER "Владимир Михайлович Зазнобин. Видеоархив"
    INDEX 01 11:45:65
  TRACK 52 AUDIO
    TITLE "00:11:58.96039"
    PERFORMER "Владимир Михайлович Зазнобин. Видеоархив"
    INDEX 01 11:58:72
  TRACK 53 AUDIO
    TITLE "00:12:11.93562"
    PERFORMER "Владимир Михайлович Зазнобин. Видеоархив"
    INDEX 01 12:11:70
  TRACK 54 AUDIO
    TITLE "00:12:31.50533"
    PERFORMER "Владимир Михайлович Зазнобин. Видеоархив"
    INDEX 01 12:31:38
  TRACK 55 AUDIO
    TITLE "00:12:44.51819"
    PERFORMER "Владимир Михайлович Зазнобин. Видеоархив"
    INDEX 01 12:44:39
  TRACK 56 AUDIO
    TITLE "00:13:10.89365"
    PERFORMER "Владимир Михайлович Зазнобин. Видеоархив"
    INDEX 01 13:10:67
  TRACK 57 AUDIO
    TITLE "00:13:32.92560"
    PERFORMER "Владимир Михайлович Зазнобин. Видеоархив"
    INDEX 01 13:32:69
  TRACK 58 AUDIO
    TITLE "00:13:46.29698"
    PERFORMER "Владимир Михайлович Зазнобин. Видеоархив"
    INDEX 01 13:46:22
  TRACK 59 AUDIO
    TITLE "00:14:00.48197"
    PERFORMER "Владимир Михайлович Зазнобин. Видеоархив"
    INDEX 01 14:00:36
  TRACK 60 AUDIO
    TITLE "00:14:16.08107"
    PERFORMER "Владимир Михайлович Зазнобин. Видеоархив"
    INDEX 01 14:16:06
  TRACK 61 AUDIO
    TITLE "00:14:30.75556"
    PERFORMER "Владимир Михайлович Зазнобин. Видеоархив"
    INDEX 01 14:30:57
  TRACK 62 AUDIO
    TITLE "00:14:45.75463"
    PERFORMER "Владимир Михайлович Зазнобин. Видеоархив"
    INDEX 01 14:45:57
  TRACK 63 AUDIO
    TITLE "00:14:58.97925"
    PERFORMER "Владимир Михайлович Зазнобин. Видеоархив"
    INDEX 01 14:58:73
  TRACK 64 AUDIO
    TITLE "00:15:12.60698"
    PERFORMER "Владимир Михайлович Зазнобин. Видеоархив"
    INDEX 01 15:12:46
  TRACK 65 AUDIO
    TITLE "00:15:26.26580"
    PERFORMER "Владимир Михайлович Зазнобин. Видеоархив"
    INDEX 01 15:26:20
  TRACK 66 AUDIO
    TITLE "00:15:39.43748"
    PERFORMER "Владимир Михайлович Зазнобин. Видеоархив"
    INDEX 01 15:39:33
  TRACK 67 AUDIO
    TITLE "00:15:53.62898"
    PERFORMER "Владимир Михайлович Зазнобин. Видеоархив"
    INDEX 01 15:53:47
  TRACK 68 AUDIO
    TITLE "00:16:07.70578"
    PERFORMER "Владимир Михайлович Зазнобин. Видеоархив"
    INDEX 01 16:07:53
  TRACK 69 AUDIO
    TITLE "00:16:21.19186"
    PERFORMER "Владимир Михайлович Зазнобин. Видеоархив"
    INDEX 01 16:21:14
  TRACK 70 AUDIO
    TITLE "00:16:35.50735"
    PERFORMER "Владимир Михайлович Зазнобин. Видеоархив"
    INDEX 01 16:35:38
  TRACK 71 AUDIO
    TITLE "00:16:50.10102"
    PERFORMER "Владимир Михайлович Зазнобин. Видеоархив"
    INDEX 01 16:50:08
  TRACK 72 AUDIO
    TITLE "00:17:05.23803"
    PERFORMER "Владимир Михайлович Зазнобин. Видеоархив"
    INDEX 01 17:05:18
  TRACK 73 AUDIO
    TITLE "00:17:18.60336"
    PERFORMER "Владимир Михайлович Зазнобин. Видеоархив"
    INDEX 01 17:18:45
  TRACK 74 AUDIO
    TITLE "00:17:31.85306"
    PERFORMER "Владимир Михайлович Зазнобин. Видеоархив"
    INDEX 01 17:31:64
  TRACK 75 AUDIO
    TITLE "00:17:45.16220"
    PERFORMER "Владимир Михайлович Зазнобин. Видеоархив"
    INDEX 01 17:45:12
  TRACK 76 AUDIO
    TITLE "00:17:58.95154"
    PERFORMER "Владимир Михайлович Зазнобин. Видеоархив"
    INDEX 01 17:58:71
  TRACK 77 AUDIO
    TITLE "00:18:15.54537"
    PERFORMER "Владимир Михайлович Зазнобин. Видеоархив"
    INDEX 01 18:15:41
  TRACK 78 AUDIO
    TITLE "00:18:30.71535"
    PERFORMER "Владимир Михайлович Зазнобин. Видеоархив"
    INDEX 01 18:30:54
  TRACK 79 AUDIO
    TITLE "00:18:43.89864"
    PERFORMER "Владимир Михайлович Зазнобин. Видеоархив"
    INDEX 01 18:43:67
  TRACK 80 AUDIO
    TITLE "00:19:03.60628"
    PERFORMER "Владимир Михайлович Зазнобин. Видеоархив"
    INDEX 01 19:03:45
  TRACK 81 AUDIO
    TITLE "00:19:17.71327"
    PERFORMER "Владимир Михайлович Зазнобин. Видеоархив"
    INDEX 01 19:17:53
  TRACK 82 AUDIO
    TITLE "00:19:32.81313"
    PERFORMER "Владимир Михайлович Зазнобин. Видеоархив"
    INDEX 01 19:32:61
  TRACK 83 AUDIO
    TITLE "00:19:46.56252"
    PERFORMER "Владимир Михайлович Зазнобин. Видеоархив"
    INDEX 01 19:46:42
  TRACK 84 AUDIO
    TITLE "00:20:00.14612"
    PERFORMER "Владимир Михайлович Зазнобин. Видеоархив"
    INDEX 01 20:00:11
  TRACK 85 AUDIO
    TITLE "00:20:13.61639"
    PERFORMER "Владимир Михайлович Зазнобин. Видеоархив"
    INDEX 01 20:13:46
  TRACK 86 AUDIO
    TITLE "00:20:27.03608"
    PERFORMER "Владимир Михайлович Зазнобин. Видеоархив"
    INDEX 01 20:27:03
  TRACK 87 AUDIO
    TITLE "00:20:42.10576"
    PERFORMER "Владимир Михайлович Зазнобин. Видеоархив"
    INDEX 01 20:42:08
  TRACK 88 AUDIO
    TITLE "00:20:55.89694"
    PERFORMER "Владимир Михайлович Зазнобин. Видеоархив"
    INDEX 01 20:55:67
  TRACK 89 AUDIO
    TITLE "00:21:10.69540"
    PERFORMER "Владимир Михайлович Зазнобин. Видеоархив"
    INDEX 01 21:10:52
  TRACK 90 AUDIO
    TITLE "00:21:24.24465"
    PERFORMER "Владимир Михайлович Зазнобин. Видеоархив"
    INDEX 01 21:24:18
  TRACK 91 AUDIO
    TITLE "00:21:37.42329"
    PERFORMER "Владимир Михайлович Зазнобин. Видеоархив"
    INDEX 01 21:37:32
  TRACK 92 AUDIO
    TITLE "00:21:51.10626"
    PERFORMER "Владимир Михайлович Зазнобин. Видеоархив"
    INDEX 01 21:51:08
  TRACK 93 AUDIO
    TITLE "00:22:08.12177"
    PERFORMER "Владимир Михайлович Зазнобин. Видеоархив"
    INDEX 01 22:08:09
  TRACK 94 AUDIO
    TITLE "00:22:22.03231"
    PERFORMER "Владимир Михайлович Зазнобин. Видеоархив"
    INDEX 01 22:22:02
  TRACK 95 AUDIO
    TITLE "00:22:37.33837"
    PERFORMER "Владимир Михайлович Зазнобин. Видеоархив"
    INDEX 01 22:37:25
  TRACK 96 AUDIO
    TITLE "00:22:50.88853"
    PERFORMER "Владимир Михайлович Зазнобин. Видеоархив"
    INDEX 01 22:50:67
  TRACK 97 AUDIO
    TITLE "00:23:03.95016"
    PERFORMER "Владимир Михайлович Зазнобин. Видеоархив"
    INDEX 01 23:03:71
  TRACK 98 AUDIO
    TITLE "00:23:17.17755"
    PERFORMER "Владимир Михайлович Зазнобин. Видеоархив"
    INDEX 01 23:17:13
  TRACK 99 AUDIO
    TITLE "00:23:31.98671"
    PERFORMER "Владимир Михайлович Зазнобин. Видеоархив"
    INDEX 01 23:31:74
  TRACK 100 AUDIO
    TITLE "00:23:45.49646"
    PERFORMER "Владимир Михайлович Зазнобин. Видеоархив"
    INDEX 01 23:45:37
  TRACK 101 AUDIO
    TITLE "00:24:00.18766"
    PERFORMER "Владимир Михайлович Зазнобин. Видеоархив"
    INDEX 01 24:00:14
  TRACK 102 AUDIO
    TITLE "00:24:15.43243"
    PERFORMER "Владимир Михайлович Зазнобин. Видеоархив"
    INDEX 01 24:15:32
  TRACK 103 AUDIO
    TITLE "00:24:29.92671"
    PERFORMER "Владимир Михайлович Зазнобин. Видеоархив"
    INDEX 01 24:29:70
  TRACK 104 AUDIO
    TITLE "00:24:45.65351"
    PERFORMER "Владимир Михайлович Зазнобин. Видеоархив"
    INDEX 01 24:45:49
  TRACK 105 AUDIO
    TITLE "00:24:59.28029"
    PERFORMER "Владимир Михайлович Зазнобин. Видеоархив"
    INDEX 01 24:59:21
  TRACK 106 AUDIO
    TITLE "00:25:13.18247"
    PERFORMER "Владимир Михайлович Зазнобин. Видеоархив"
    INDEX 01 25:13:14
  TRACK 107 AUDIO
    TITLE "00:25:26.32304"
    PERFORMER "Владимир Михайлович Зазнобин. Видеоархив"
    INDEX 01 25:26:24
  TRACK 108 AUDIO
    TITLE "00:25:40.61902"
    PERFORMER "Владимир Михайлович Зазнобин. Видеоархив"
    INDEX 01 25:40:46
  TRACK 109 AUDIO
    TITLE "00:25:55.41007"
    PERFORMER "Владимир Михайлович Зазнобин. Видеоархив"
    INDEX 01 25:55:31
  TRACK 110 AUDIO
    TITLE "00:26:08.71410"
    PERFORMER "Владимир Михайлович Зазнобин. Видеоархив"
    INDEX 01 26:08:54
  TRACK 111 AUDIO
    TITLE "00:26:21.84864"
    PERFORMER "Владимир Михайлович Зазнобин. Видеоархив"
    INDEX 01 26:21:64
  TRACK 112 AUDIO
    TITLE "00:26:35.49399"
    PERFORMER "Владимир Михайлович Зазнобин. Видеоархив"
    INDEX 01 26:35:37
  TRACK 113 AUDIO
    TITLE "00:26:50.03705"
    PERFORMER "Владимир Михайлович Зазнобин. Видеоархив"
    INDEX 01 26:50:03
  TRACK 114 AUDIO
    TITLE "00:27:04.06973"
    PERFORMER "Владимир Михайлович Зазнобин. Видеоархив"
    INDEX 01 27:04:05
  TRACK 115 AUDIO
    TITLE "00:27:18.52639"
    PERFORMER "Владимир Михайлович Зазнобин. Видеоархив"
    INDEX 01 27:18:39
  TRACK 116 AUDIO
    TITLE "00:27:31.62748"
    PERFORMER "Владимир Михайлович Зазнобин. Видеоархив"
    INDEX 01 27:31:47
  TRACK 117 AUDIO
    TITLE "00:27:46.95816"
    PERFORMER "Владимир Михайлович Зазнобин. Видеоархив"
    INDEX 01 27:46:72
  TRACK 118 AUDIO
    TITLE "00:28:00.61234"
    PERFORMER "Владимир Михайлович Зазнобин. Видеоархив"
    INDEX 01 28:00:46
  TRACK 119 AUDIO
    TITLE "00:28:13.75755"
    PERFORMER "Владимир Михайлович Зазнобин. Видеоархив"
    INDEX 01 28:13:57
  TRACK 120 AUDIO
    TITLE "00:28:26.87862"
    PERFORMER "Владимир Михайлович Зазнобин. Видеоархив"
    INDEX 01 28:26:66
  TRACK 121 AUDIO
    TITLE "00:28:41.45975"
    PERFORMER "Владимир Михайлович Зазнобин. Видеоархив"
    INDEX 01 28:41:34
  TRACK 122 AUDIO
    TITLE "00:28:55.21100"
    PERFORMER "Владимир Михайлович Зазнобин. Видеоархив"
    INDEX 01 28:55:16
  TRACK 123 AUDIO
    TITLE "00:29:09.52880"
    PERFORMER "Владимир Михайлович Зазнобин. Видеоархив"
    INDEX 01 29:09:40
  TRACK 124 AUDIO
    TITLE "00:29:24.05605"
    PERFORMER "Владимир Михайлович Зазнобин. Видеоархив"
    INDEX 01 29:24:04
  TRACK 125 AUDIO
    TITLE "00:29:37.38100"
    PERFORMER "Владимир Михайлович Зазнобин. Видеоархив"
    INDEX 01 29:37:29
  TRACK 126 AUDIO
    TITLE "00:29:52.64293"
    PERFORMER "Владимир Михайлович Зазнобин. Видеоархив"
    INDEX 01 29:52:48
  TRACK 127 AUDIO
    TITLE "00:30:07.57932"
    PERFORMER "Владимир Михайлович Зазнобин. Видеоархив"
    INDEX 01 30:07:43
  TRACK 128 AUDIO
    TITLE "00:30:20.94374"
    PERFORMER "Владимир Михайлович Зазнобин. Видеоархив"
    INDEX 01 30:20:71
  TRACK 129 AUDIO
    TITLE "00:30:37.70522"
    PERFORMER "Владимир Михайлович Зазнобин. Видеоархив"
    INDEX 01 30:37:53
  TRACK 130 AUDIO
    TITLE "00:30:50.78866"
    PERFORMER "Владимир Михайлович Зазнобин. Видеоархив"
    INDEX 01 30:50:59
  TRACK 131 AUDIO
    TITLE "00:31:07.62957"
    PERFORMER "Владимир Михайлович Зазнобин. Видеоархив"
    INDEX 01 31:07:47
  TRACK 132 AUDIO
    TITLE "00:31:20.72415"
    PERFORMER "Владимир Михайлович Зазнобин. Видеоархив"
    INDEX 01 31:20:54
  TRACK 133 AUDIO
    TITLE "00:31:33.86517"
    PERFORMER "Владимир Михайлович Зазнобин. Видеоархив"
    INDEX 01 31:33:65
  TRACK 134 AUDIO
    TITLE "00:31:49.06070"
    PERFORMER "Владимир Михайлович Зазнобин. Видеоархив"
    INDEX 01 31:49:05
  TRACK 135 AUDIO
    TITLE "00:32:02.58671"
    PERFORMER "Владимир Михайлович Зазнобин. Видеоархив"
    INDEX 01 32:02:44
  TRACK 136 AUDIO
    TITLE "00:32:17.69819"
    PERFORMER "Владимир Михайлович Зазнобин. Видеоархив"
    INDEX 01 32:17:52
  TRACK 137 AUDIO
    TITLE "00:32:36.46494"
    PERFORMER "Владимир Михайлович Зазнобин. Видеоархив"
    INDEX 01 32:36:35
  TRACK 138 AUDIO
    TITLE "00:32:52.90367"
    PERFORMER "Владимир Михайлович Зазнобин. Видеоархив"
    INDEX 01 32:52:68
  TRACK 139 AUDIO
    TITLE "00:33:08.58311"
    PERFORMER "Владимир Михайлович Зазнобин. Видеоархив"
    INDEX 01 33:08:44
  TRACK 140 AUDIO
    TITLE "00:33:24.21889"
    PERFORMER "Владимир Михайлович Зазнобин. Видеоархив"
    INDEX 01 33:24:16
  TRACK 141 AUDIO
    TITLE "00:33:38.37741"
    PERFORMER "Владимир Михайлович Зазнобин. Видеоархив"
    INDEX 01 33:38:28
  TRACK 142 AUDIO
    TITLE "00:33:51.93642"
    PERFORMER "Владимир Михайлович Зазнобин. Видеоархив"
    INDEX 01 33:51:70
  TRACK 143 AUDIO
    TITLE "00:34:07.43751"
    PERFORMER "Владимир Михайлович Зазнобин. Видеоархив"
    INDEX 01 34:07:33
  TRACK 144 AUDIO
    TITLE "00:34:23.90458"
    PERFORMER "Владимир Михайлович Зазнобин. Видеоархив"
    INDEX 01 34:23:68
  TRACK 145 AUDIO
    TITLE "00:34:38.90923"
    PERFORMER "Владимир Михайлович Зазнобин. Видеоархив"
    INDEX 01 34:38:68
  TRACK 146 AUDIO
    TITLE "00:34:57.83667"
    PERFORMER "Владимир Михайлович Зазнобин. Видеоархив"
    INDEX 01 34:57:63
  TRACK 147 AUDIO
    TITLE "00:35:13.32941"
    PERFORMER "Владимир Михайлович Зазнобин. Видеоархив"
    INDEX 01 35:13:25
  TRACK 148 AUDIO
    TITLE "00:35:27.92401"
    PERFORMER "Владимир Михайлович Зазнобин. Видеоархив"
    INDEX 01 35:27:69
  TRACK 149 AUDIO
    TITLE "00:35:41.57125"
    PERFORMER "Владимир Михайлович Зазнобин. Видеоархив"
    INDEX 01 35:41:43
  TRACK 150 AUDIO
    TITLE "00:35:54.46429"
    PERFORMER "Владимир Михайлович Зазнобин. Видеоархив"
    INDEX 01 35:54:35
  TRACK 151 AUDIO
    TITLE "00:36:08.49927"
    PERFORMER "Владимир Михайлович Зазнобин. Видеоархив"
    INDEX 01 36:08:37
  TRACK 152 AUDIO
    TITLE "00:36:28.44281"
    PERFORMER "Владимир Михайлович Зазнобин. Видеоархив"
    INDEX 01 36:28:33
  TRACK 153 AUDIO
    TITLE "00:36:47.06329"
    PERFORMER "Владимир Михайлович Зазнобин. Видеоархив"
    INDEX 01 36:47:05
  TRACK 154 AUDIO
    TITLE "00:37:02.78730"
    PERFORMER "Владимир Михайлович Зазнобин. Видеоархив"
    INDEX 01 37:02:59
  TRACK 155 AUDIO
    TITLE "00:37:18.41474"
    PERFORMER "Владимир Михайлович Зазнобин. Видеоархив"
    INDEX 01 37:18:31
  TRACK 156 AUDIO
    TITLE "00:37:33.44261"
    PERFORMER "Владимир Михайлович Зазнобин. Видеоархив"
    INDEX 01 37:33:33
  TRACK 157 AUDIO
    TITLE "00:37:46.65331"
    PERFORMER "Владимир Михайлович Зазнобин. Видеоархив"
    INDEX 01 37:46:49
  TRACK 158 AUDIO
    TITLE "00:38:00.30796"
    PERFORMER "Владимир Михайлович Зазнобин. Видеоархив"
    INDEX 01 38:00:23
  TRACK 159 AUDIO
    TITLE "00:38:14.80642"
    PERFORMER "Владимир Михайлович Зазнобин. Видеоархив"
    INDEX 01 38:14:60
  TRACK 160 AUDIO
    TITLE "00:38:30.38277"
    PERFORMER "Владимир Михайлович Зазнобин. Видеоархив"
    INDEX 01 38:30:29
  TRACK 161 AUDIO
    TITLE "00:38:45.04283"
    PERFORMER "Владимир Михайлович Зазнобин. Видеоархив"
    INDEX 01 38:45:03
  TRACK 162 AUDIO
    TITLE "00:38:59.17721"
    PERFORMER "Владимир Михайлович Зазнобин. Видеоархив"
    INDEX 01 38:59:13
  TRACK 163 AUDIO
    TITLE "00:39:12.31778"
    PERFORMER "Владимир Михайлович Зазнобин. Видеоархив"
    INDEX 01 39:12:24
  TRACK 164 AUDIO
    TITLE "00:39:26.29984"
    PERFORMER "Владимир Михайлович Зазнобин. Видеоархив"
    INDEX 01 39:26:22
  TRACK 165 AUDIO
    TITLE "00:39:43.22850"
    PERFORMER "Владимир Михайлович Зазнобин. Видеоархив"
    INDEX 01 39:43:17
  TRACK 166 AUDIO
    TITLE "00:39:59.96306"
    PERFORMER "Владимир Михайлович Зазнобин. Видеоархив"
    INDEX 01 39:59:72
  TRACK 167 AUDIO
    TITLE "00:40:16.79281"
    PERFORMER "Владимир Михайлович Зазнобин. Видеоархив"
    INDEX 01 40:16:59
  TRACK 168 AUDIO
    TITLE "00:40:29.88322"
    PERFORMER "Владимир Михайлович Зазнобин. Видеоархив"
    INDEX 01 40:29:66
  TRACK 169 AUDIO
    TITLE "00:40:42.81850"
    PERFORMER "Владимир Михайлович Зазнобин. Видеоархив"
    INDEX 01 40:42:61
  TRACK 170 AUDIO
    TITLE "00:40:57.91141"
    PERFORMER "Владимир Михайлович Зазнобин. Видеоархив"
    INDEX 01 40:57:68
  TRACK 171 AUDIO
    TITLE "00:41:11.80338"
    PERFORMER "Владимир Михайлович Зазнобин. Видеоархив"
    INDEX 01 41:11:60
  TRACK 172 AUDIO
    TITLE "00:41:25.24488"
    PERFORMER "Владимир Михайлович Зазнобин. Видеоархив"
    INDEX 01 41:25:18
  TRACK 173 AUDIO
    TITLE "00:41:40.69070"
    PERFORMER "Владимир Михайлович Зазнобин. Видеоархив"
    INDEX 01 41:40:52
  TRACK 174 AUDIO
    TITLE "00:42:10.07921"
    PERFORMER "Владимир Михайлович Зазнобин. Видеоархив"
    INDEX 01 42:10:06
  TRACK 175 AUDIO
    TITLE "00:42:34.88084"
    PERFORMER "Владимир Михайлович Зазнобин. Видеоархив"
    INDEX 01 42:34:66
  TRACK 176 AUDIO
    TITLE "00:42:55.20472"
    PERFORMER "Владимир Михайлович Зазнобин. Видеоархив"
    INDEX 01 42:55:15
  TRACK 177 AUDIO
    TITLE "00:43:08.78136"
    PERFORMER "Владимир Михайлович Зазнобин. Видеоархив"
    INDEX 01 43:08:59
  TRACK 178 AUDIO
    TITLE "00:43:23.57658"
    PERFORMER "Владимир Михайлович Зазнобин. Видеоархив"
    INDEX 01 43:23:43
  TRACK 179 AUDIO
    TITLE "00:43:39.93542"
    PERFORMER "Владимир Михайлович Зазнобин. Видеоархив"
    INDEX 01 43:39:70
  TRACK 180 AUDIO
    TITLE "00:43:56.87569"
    PERFORMER "Владимир Михайлович Зазнобин. Видеоархив"
    INDEX 01 43:56:66
  TRACK 181 AUDIO
    TITLE "00:44:10.58098"
    PERFORMER "Владимир Михайлович Зазнобин. Видеоархив"
    INDEX 01 44:10:44
  TRACK 182 AUDIO
    TITLE "00:44:25.68315"
    PERFORMER "Владимир Михайлович Зазнобин. Видеоархив"
    INDEX 01 44:25:51
  TRACK 183 AUDIO
    TITLE "00:44:40.84989"
    PERFORMER "Владимир Михайлович Зазнобин. Видеоархив"
    INDEX 01 44:40:64
  TRACK 184 AUDIO
    TITLE "00:45:01.24855"
    PERFORMER "Владимир Михайлович Зазнобин. Видеоархив"
    INDEX 01 45:01:19
  TRACK 185 AUDIO
    TITLE "00:45:14.75925"
    PERFORMER "Владимир Михайлович Зазнобин. Видеоархив"
    INDEX 01 45:14:57
  TRACK 186 AUDIO
    TITLE "00:45:30.13635"
    PERFORMER "Владимир Михайлович Зазнобин. Видеоархив"
    INDEX 01 45:30:10
  TRACK 187 AUDIO
    TITLE "00:45:44.26424"
    PERFORMER "Владимир Михайлович Зазнобин. Видеоархив"
    INDEX 01 45:44:20
  TRACK 188 AUDIO
    TITLE "00:45:57.92213"
    PERFORMER "Владимир Михайлович Зазнобин. Видеоархив"
    INDEX 01 45:57:69
  TRACK 189 AUDIO
    TITLE "00:46:12.16007"
    PERFORMER "Владимир Михайлович Зазнобин. Видеоархив"
    INDEX 01 46:12:12
  TRACK 190 AUDIO
    TITLE "00:46:25.94522"
    PERFORMER "Владимир Михайлович Зазнобин. Видеоархив"
    INDEX 01 46:25:71
  TRACK 191 AUDIO
    TITLE "00:46:41.92653"
    PERFORMER "Владимир Михайлович Зазнобин. Видеоархив"
    INDEX 01 46:41:69
  TRACK 192 AUDIO
    TITLE "00:46:58.38846"
    PERFORMER "Владимир Михайлович Зазнобин. Видеоархив"
    INDEX 01 46:58:29
  TRACK 193 AUDIO
    TITLE "00:47:12.28088"
    PERFORMER "Владимир Михайлович Зазнобин. Видеоархив"
    INDEX 01 47:12:21
  TRACK 194 AUDIO
    TITLE "00:47:31.15399"
    PERFORMER "Владимир Михайлович Зазнобин. Видеоархив"
    INDEX 01 47:31:12
  TRACK 195 AUDIO
    TITLE "00:47:49.56596"
    PERFORMER "Владимир Михайлович Зазнобин. Видеоархив"
    INDEX 01 47:49:42
  TRACK 196 AUDIO
    TITLE "00:48:04.87388"
    PERFORMER "Владимир Михайлович Зазнобин. Видеоархив"
    INDEX 01 48:04:66
  TRACK 197 AUDIO
    TITLE "00:48:19.10671"
    PERFORMER "Владимир Михайлович Зазнобин. Видеоархив"
    INDEX 01 48:19:08
  TRACK 198 AUDIO
    TITLE "00:48:33.52669"
    PERFORMER "Владимир Михайлович Зазнобин. Видеоархив"
    INDEX 01 48:33:40
  TRACK 199 AUDIO
    TITLE "00:48:50.16324"
    PERFORMER "Владимир Михайлович Зазнобин. Видеоархив"
    INDEX 01 48:50:12
  TRACK 200 AUDIO
    TITLE "00:49:04.54980"
    PERFORMER "Владимир Михайлович Зазнобин. Видеоархив"
    INDEX 01 49:04:41
  TRACK 201 AUDIO
    TITLE "00:49:23.14844"
    PERFORMER "Владимир Михайлович Зазнобин. Видеоархив"
    INDEX 01 49:23:11
  TRACK 202 AUDIO
    TITLE "00:49:36.41578"
    PERFORMER "Владимир Михайлович Зазнобин. Видеоархив"
    INDEX 01 49:36:31
  TRACK 203 AUDIO
    TITLE "00:49:49.68730"
    PERFORMER "Владимир Михайлович Зазнобин. Видеоархив"
    INDEX 01 49:49:52
  TRACK 204 AUDIO
    TITLE "00:50:04.14492"
    PERFORMER "Владимир Михайлович Зазнобин. Видеоархив"
    INDEX 01 50:04:11
  TRACK 205 AUDIO
    TITLE "00:50:17.71875"
    PERFORMER "Владимир Михайлович Зазнобин. Видеоархив"
    INDEX 01 50:17:54
  TRACK 206 AUDIO
    TITLE "00:50:36.45905"
    PERFORMER "Владимир Михайлович Зазнобин. Видеоархив"
    INDEX 01 50:36:34
  TRACK 207 AUDIO
    TITLE "00:50:50.33662"
    PERFORMER "Владимир Михайлович Зазнобин. Видеоархив"
    INDEX 01 50:50:25
  TRACK 208 AUDIO
    TITLE "00:51:23.77281"
    PERFORMER "Владимир Михайлович Зазнобин. Видеоархив"
    INDEX 01 51:23:58
  TRACK 209 AUDIO
    TITLE "00:51:44.97488"
    PERFORMER "Владимир Михайлович Зазнобин. Видеоархив"
    INDEX 01 51:44:73
  TRACK 210 AUDIO
    TITLE "00:52:01.19347"
    PERFORMER "Владимир Михайлович Зазнобин. Видеоархив"
    INDEX 01 52:01:15
  TRACK 211 AUDIO
    TITLE "00:52:15.11052"
    PERFORMER "Владимир Михайлович Зазнобин. Видеоархив"
    INDEX 01 52:15:08
  TRACK 212 AUDIO
    TITLE "00:52:33.99662"
    PERFORMER "Владимир Михайлович Зазнобин. Видеоархив"
    INDEX 01 52:34:00
  TRACK 213 AUDIO
    TITLE "00:52:49.96213"
    PERFORMER "Владимир Михайлович Зазнобин. Видеоархив"
    INDEX 01 52:49:72
  TRACK 214 AUDIO
    TITLE "00:53:06.00658"
    PERFORMER "Владимир Михайлович Зазнобин. Видеоархив"
    INDEX 01 53:06:00
  TRACK 215 AUDIO
    TITLE "00:53:23.92118"
    PERFORMER "Владимир Михайлович Зазнобин. Видеоархив"
    INDEX 01 53:23:69
  TRACK 216 AUDIO
    TITLE "00:53:40.70773"
    PERFORMER "Владимир Михайлович Зазнобин. Видеоархив"
    INDEX 01 53:40:53
  TRACK 217 AUDIO
    TITLE "00:53:56.55342"
    PERFORMER "Владимир Михайлович Зазнобин. Видеоархив"
    INDEX 01 53:56:42
  TRACK 218 AUDIO
    TITLE "00:54:09.76503"
    PERFORMER "Владимир Михайлович Зазнобин. Видеоархив"
    INDEX 01 54:09:57
  TRACK 219 AUDIO
    TITLE "00:54:23.07000"
    PERFORMER "Владимир Михайлович Зазнобин. Видеоархив"
    INDEX 01 54:23:05
  TRACK 220 AUDIO
    TITLE "00:54:35.93658"
    PERFORMER "Владимир Михайлович Зазнобин. Видеоархив"
    INDEX 01 54:35:70
  TRACK 221 AUDIO
    TITLE "00:54:55.56385"
    PERFORMER "Владимир Михайлович Зазнобин. Видеоархив"
    INDEX 01 54:55:42
  TRACK 222 AUDIO
    TITLE "00:55:10.03492"
    PERFORMER "Владимир Михайлович Зазнобин. Видеоархив"
    INDEX 01 55:10:03
  TRACK 223 AUDIO
    TITLE "00:55:23.25909"
    PERFORMER "Владимир Михайлович Зазнобин. Видеоархив"
    INDEX 01 55:23:19
  TRACK 224 AUDIO
    TITLE "00:55:39.60726"
    PERFORMER "Владимир Михайлович Зазнобин. Видеоархив"
    INDEX 01 55:39:46
  TRACK 225 AUDIO
    TITLE "00:55:58.20451"
    PERFORMER "Владимир Михайлович Зазнобин. Видеоархив"
    INDEX 01 55:58:15
  TRACK 226 AUDIO
    TITLE "00:56:13.13626"
    PERFORMER "Владимир Михайлович Зазнобин. Видеоархив"
    INDEX 01 56:13:10
  TRACK 227 AUDIO
    TITLE "00:56:28.48968"
    PERFORMER "Владимир Михайлович Зазнобин. Видеоархив"
    INDEX 01 56:28:37
  TRACK 228 AUDIO
    TITLE "00:56:43.98707"
    PERFORMER "Владимир Михайлович Зазнобин. Видеоархив"
    INDEX 01 56:43:74
  TRACK 229 AUDIO
    TITLE "00:56:57.30039"
    PERFORMER "Владимир Михайлович Зазнобин. Видеоархив"
    INDEX 01 56:57:23
  TRACK 230 AUDIO
    TITLE "00:57:10.34204"
    PERFORMER "Владимир Михайлович Зазнобин. Видеоархив"
    INDEX 01 57:10:26
  TRACK 231 AUDIO
    TITLE "00:57:25.14050"
    PERFORMER "Владимир Михайлович Зазнобин. Видеоархив"
    INDEX 01 57:25:11
  TRACK 232 AUDIO
    TITLE "00:57:38.45522"
    PERFORMER "Владимир Михайлович Зазнобин. Видеоархив"
    INDEX 01 57:38:34
  TRACK 233 AUDIO
    TITLE "00:57:53.83234"
    PERFORMER "Владимир Михайлович Зазнобин. Видеоархив"
    INDEX 01 57:53:62
  TRACK 234 AUDIO
    TITLE "00:58:08.96796"
    PERFORMER "Владимир Михайлович Зазнобин. Видеоархив"
    INDEX 01 58:08:73
  TRACK 235 AUDIO
    TITLE "00:58:22.44986"
    PERFORMER "Владимир Михайлович Зазнобин. Видеоархив"
    INDEX 01 58:22:34
  TRACK 236 AUDIO
    TITLE "00:58:40.95655"
    PERFORMER "Владимир Михайлович Зазнобин. Видеоархив"
    INDEX 01 58:40:72
  TRACK 237 AUDIO
    TITLE "00:58:56.85751"
    PERFORMER "Владимир Михайлович Зазнобин. Видеоархив"
    INDEX 01 58:56:64
  TRACK 238 AUDIO
    TITLE "00:59:10.64127"
    PERFORMER "Владимир Михайлович Зазнобин. Видеоархив"
    INDEX 01 59:10:48
  TRACK 239 AUDIO
    TITLE "00:59:26.55707"
    PERFORMER "Владимир Михайлович Зазнобин. Видеоархив"
    INDEX 01 59:26:42
  TRACK 240 AUDIO
    TITLE "00:59:49.48206"
    PERFORMER "Владимир Михайлович Зазнобин. Видеоархив"
    INDEX 01 59:49:36
  TRACK 241 AUDIO
    TITLE "01:00:02.92170"
    PERFORMER "Владимир Михайлович Зазнобин. Видеоархив"
    INDEX 01 60:02:69
  TRACK 242 AUDIO
    TITLE "01:00:15.98982"
    PERFORMER "Владимир Михайлович Зазнобин. Видеоархив"
    INDEX 01 60:15:74
  TRACK 243 AUDIO
    TITLE "01:00:29.21723"
    PERFORMER "Владимир Михайлович Зазнобин. Видеоархив"
    INDEX 01 60:29:16
  TRACK 244 AUDIO
    TITLE "01:00:42.77853"
    PERFORMER "Владимир Михайлович Зазнобин. Видеоархив"
    INDEX 01 60:42:58
  TRACK 245 AUDIO
    TITLE "01:00:57.63551"
    PERFORMER "Владимир Михайлович Зазнобин. Видеоархив"
    INDEX 01 60:57:48
  TRACK 246 AUDIO
    TITLE "01:01:11.59714"
    PERFORMER "Владимир Михайлович Зазнобин. Видеоархив"
    INDEX 01 61:11:45
  TRACK 247 AUDIO
    TITLE "01:01:26.63014"
    PERFORMER "Владимир Михайлович Зазнобин. Видеоархив"
    INDEX 01 61:26:47
  TRACK 248 AUDIO
    TITLE "01:01:45.71454"
    PERFORMER "Владимир Михайлович Зазнобин. Видеоархив"
    INDEX 01 61:45:54
  TRACK 249 AUDIO
    TITLE "01:02:01.10930"
    PERFORMER "Владимир Михайлович Зазнобин. Видеоархив"
    INDEX 01 62:01:08
  TRACK 250 AUDIO
    TITLE "01:02:15.53252"
    PERFORMER "Владимир Михайлович Зазнобин. Видеоархив"
    INDEX 01 62:15:40
  TRACK 251 AUDIO
    TITLE "01:02:29.93209"
    PERFORMER "Владимир Михайлович Зазнобин. Видеоархив"
    INDEX 01 62:29:70
  TRACK 252 AUDIO
    TITLE "01:02:47.06508"
    PERFORMER "Владимир Михайлович Зазнобин. Видеоархив"
    INDEX 01 62:47:05
  TRACK 253 AUDIO
    TITLE "01:03:00.32964"
    PERFORMER "Владимир Михайлович Зазнобин. Видеоархив"
    INDEX 01 63:00:25
  TRACK 254 AUDIO
    TITLE "01:03:15.96311"
    PERFORMER "Владимир Михайлович Зазнобин. Видеоархив"
    INDEX 01 63:15:72
  TRACK 255 AUDIO
    TITLE "01:03:30.34918"
    PERFORMER "Владимир Михайлович Зазнобин. Видеоархив"
    INDEX 01 63:30:26
  TRACK 256 AUDIO
    TITLE "01:03:47.37583"
    PERFORMER "Владимир Михайлович Зазнобин. Видеоархив"
    INDEX 01 63:47:28
  TRACK 257 AUDIO
    TITLE "01:04:01.35045"
    PERFORMER "Владимир Михайлович Зазнобин. Видеоархив"
    INDEX 01 64:01:26
  TRACK 258 AUDIO
    TITLE "01:04:15.45186"
    PERFORMER "Владимир Михайлович Зазнобин. Видеоархив"
    INDEX 01 64:15:34
  TRACK 259 AUDIO
    TITLE "01:04:28.55481"
    PERFORMER "Владимир Михайлович Зазнобин. Видеоархив"
    INDEX 01 64:28:42
  TRACK 260 AUDIO
    TITLE "01:04:44.76460"
    PERFORMER "Владимир Михайлович Зазнобин. Видеоархив"
    INDEX 01 64:44:57
  TRACK 261 AUDIO
    TITLE "01:05:03.71247"
    PERFORMER "Владимир Михайлович Зазнобин. Видеоархив"
    INDEX 01 65:03:53
  TRACK 262 AUDIO
    TITLE "01:05:26.49721"
    PERFORMER "Владимир Михайлович Зазнобин. Видеоархив"
    INDEX 01 65:26:37
  TRACK 263 AUDIO
    TITLE "01:05:41.69646"
    PERFORMER "Владимир Михайлович Зазнобин. Видеоархив"
    INDEX 01 65:41:52
  TRACK 264 AUDIO
    TITLE "01:05:57.17946"
    PERFORMER "Владимир Михайлович Зазнобин. Видеоархив"
    INDEX 01 65:57:13
  TRACK 265 AUDIO
    TITLE "01:06:12.71630"
    PERFORMER "Владимир Михайлович Зазнобин. Видеоархив"
    INDEX 01 66:12:54
  TRACK 266 AUDIO
    TITLE "01:06:27.31834"
    PERFORMER "Владимир Михайлович Зазнобин. Видеоархив"
    INDEX 01 66:27:24
  TRACK 267 AUDIO
    TITLE "01:06:42.09406"
    PERFORMER "Владимир Михайлович Зазнобин. Видеоархив"
    INDEX 01 66:42:07
  TRACK 268 AUDIO
    TITLE "01:06:56.83633"
    PERFORMER "Владимир Михайлович Зазнобин. Видеоархив"
    INDEX 01 66:56:63
  TRACK 269 AUDIO
    TITLE "01:07:10.46823"
    PERFORMER "Владимир Михайлович Зазнобин. Видеоархив"
    INDEX 01 67:10:35
  TRACK 270 AUDIO
    TITLE "01:07:26.19503"
    PERFORMER "Владимир Михайлович Зазнобин. Видеоархив"
    INDEX 01 67:26:15
  TRACK 271 AUDIO
    TITLE "01:07:42.70712"
    PERFORMER "Владимир Михайлович Зазнобин. Видеоархив"
    INDEX 01 67:42:53
  TRACK 272 AUDIO
    TITLE "01:07:58.23610"
    PERFORMER "Владимир Михайлович Зазнобин. Видеоархив"
    INDEX 01 67:58:18
  TRACK 273 AUDIO
    TITLE "01:08:11.54848"
    PERFORMER "Владимир Михайлович Зазнобин. Видеоархив"
    INDEX 01 68:11:41
  TRACK 274 AUDIO
    TITLE "01:08:25.43766"
    PERFORMER "Владимир Михайлович Зазнобин. Видеоархив"
    INDEX 01 68:25:33
  TRACK 275 AUDIO
    TITLE "01:08:38.48304"
    PERFORMER "Владимир Михайлович Зазнобин. Видеоархив"
    INDEX 01 68:38:36
  TRACK 276 AUDIO
    TITLE "01:08:52.30302"
    PERFORMER "Владимир Михайлович Зазнобин. Видеоархив"
    INDEX 01 68:52:23
  TRACK 277 AUDIO
    TITLE "01:09:09.58091"
    PERFORMER "Владимир Михайлович Зазнобин. Видеоархив"
    INDEX 01 69:09:44
  TRACK 278 AUDIO
    TITLE "01:09:22.93510"
    PERFORMER "Владимир Михайлович Зазнобин. Видеоархив"
    INDEX 01 69:22:70
  TRACK 279 AUDIO
    TITLE "01:09:38.76313"
    PERFORMER "Владимир Михайлович Зазнобин. Видеоархив"
    INDEX 01 69:38:57
  TRACK 280 AUDIO
    TITLE "01:09:56.32943"
    PERFORMER "Владимир Михайлович Зазнобин. Видеоархив"
    INDEX 01 69:56:25
  TRACK 281 AUDIO
    TITLE "01:10:09.42401"
    PERFORMER "Владимир Михайлович Зазнобин. Видеоархив"
    INDEX 01 70:09:32
  TRACK 282 AUDIO
    TITLE "01:10:24.77930"
    PERFORMER "Владимир Михайлович Зазнобин. Видеоархив"
    INDEX 01 70:24:58
  TRACK 283 AUDIO
    TITLE "01:10:42.92701"
    PERFORMER "Владимир Михайлович Зазнобин. Видеоархив"
    INDEX 01 70:42:70
  TRACK 284 AUDIO
    TITLE "01:10:57.93168"
    PERFORMER "Владимир Михайлович Зазнобин. Видеоархив"
    INDEX 01 70:57:70
  TRACK 285 AUDIO
    TITLE "01:11:11.07501"
    PERFORMER "Владимир Михайлович Зазнобин. Видеоархив"
    INDEX 01 71:11:06
  TRACK 286 AUDIO
    TITLE "01:11:26.17118"
    PERFORMER "Владимир Михайлович Зазнобин. Видеоархив"
    INDEX 01 71:26:13
  TRACK 287 AUDIO
    TITLE "01:11:41.30912"
    PERFORMER "Владимир Михайлович Зазнобин. Видеоархив"
    INDEX 01 71:41:23
  TRACK 288 AUDIO
    TITLE "01:11:55.91068"
    PERFORMER "Владимир Михайлович Зазнобин. Видеоархив"
    INDEX 01 71:55:68
  TRACK 289 AUDIO
    TITLE "01:12:11.73129"
    PERFORMER "Владимир Михайлович Зазнобин. Видеоархив"
    INDEX 01 72:11:55
  TRACK 290 AUDIO
    TITLE "01:12:27.57095"
    PERFORMER "Владимир Михайлович Зазнобин. Видеоархив"
    INDEX 01 72:27:43
  TRACK 291 AUDIO
    TITLE "01:12:41.55161"
    PERFORMER "Владимир Михайлович Зазнобин. Видеоархив"
    INDEX 01 72:41:41
  TRACK 292 AUDIO
    TITLE "01:12:55.92469"
    PERFORMER "Владимир Михайлович Зазнобин. Видеоархив"
    INDEX 01 72:55:69
  TRACK 293 AUDIO
    TITLE "01:13:09.57887"
    PERFORMER "Владимир Михайлович Зазнобин. Видеоархив"
    INDEX 01 73:09:43
  TRACK 294 AUDIO
    TITLE "01:13:22.72408"
    PERFORMER "Владимир Михайлович Зазнобин. Видеоархив"
    INDEX 01 73:22:54
  TRACK 295 AUDIO
    TITLE "01:13:41.25075"
    PERFORMER "Владимир Михайлович Зазнобин. Видеоархив"
    INDEX 01 73:41:19
  TRACK 296 AUDIO
    TITLE "01:13:55.96331"
    PERFORMER "Владимир Михайлович Зазнобин. Видеоархив"
    INDEX 01 73:55:72
  TRACK 297 AUDIO
    TITLE "01:14:11.88748"
    PERFORMER "Владимир Михайлович Зазнобин. Видеоархив"
    INDEX 01 74:11:67
  TRACK 298 AUDIO
    TITLE "01:14:27.82279"
    PERFORMER "Владимир Михайлович Зазнобин. Видеоархив"
    INDEX 01 74:27:62
  TRACK 299 AUDIO
    TITLE "01:14:42.59664"
    PERFORMER "Владимир Михайлович Зазнобин. Видеоархив"
    INDEX 01 74:42:45
  TRACK 300 AUDIO
    TITLE "01:14:55.82544"
    PERFORMER "Владимир Михайлович Зазнобин. Видеоархив"
    INDEX 01 74:55:62
  TRACK 301 AUDIO
    TITLE "01:15:09.52376"
    PERFORMER "Владимир Михайлович Зазнобин. Видеоархив"
    INDEX 01 75:09:39
  TRACK 302 AUDIO
    TITLE "01:15:31.83619"
    PERFORMER "Владимир Михайлович Зазнобин. Видеоархив"
    INDEX 01 75:31:63
  TRACK 303 AUDIO
    TITLE "01:15:47.18451"
    PERFORMER "Владимир Михайлович Зазнобин. Видеоархив"
    INDEX 01 75:47:14
  TRACK 304 AUDIO
    TITLE "01:16:01.11921"
    PERFORMER "Владимир Михайлович Зазнобин. Видеоархив"
    INDEX 01 76:01:09
  TRACK 305 AUDIO
    TITLE "01:16:14.87463"
    PERFORMER "Владимир Михайлович Зазнобин. Видеоархив"
    INDEX 01 76:14:66
  TRACK 306 AUDIO
    TITLE "01:16:30.05020"
    PERFORMER "Владимир Михайлович Зазнобин. Видеоархив"
    INDEX 01 76:30:04
  TRACK 307 AUDIO
    TITLE "01:16:48.48166"
    PERFORMER "Владимир Михайлович Зазнобин. Видеоархив"
    INDEX 01 76:48:36
  TRACK 308 AUDIO
    TITLE "01:17:03.61776"
    PERFORMER "Владимир Михайлович Зазнобин. Видеоархив"
    INDEX 01 77:03:46
  TRACK 309 AUDIO
    TITLE "01:17:17.06528"
    PERFORMER "Владимир Михайлович Зазнобин. Видеоархив"
    INDEX 01 77:17:05
  TRACK 310 AUDIO
    TITLE "01:17:30.98927"
    PERFORMER "Владимир Михайлович Зазнобин. Видеоархив"
    INDEX 01 77:30:74
  TRACK 311 AUDIO
    TITLE "01:17:43.79642"
    PERFORMER "Владимир Михайлович Зазнобин. Видеоархив"
    INDEX 01 77:43:60
  TRACK 312 AUDIO
    TITLE "01:17:58.46857"
    PERFORMER "Владимир Михайлович Зазнобин. Видеоархив"
    INDEX 01 77:58:35
  TRACK 313 AUDIO
    TITLE "01:18:12.76549"
    PERFORMER "Владимир Михайлович Зазнобин. Видеоархив"
    INDEX 01 78:12:57
  TRACK 314 AUDIO
    TITLE "01:18:29.33238"
    PERFORMER "Владимир Михайлович Зазнобин. Видеоархив"
    INDEX 01 78:29:25
  TRACK 315 AUDIO
    TITLE "01:18:43.68317"
    PERFORMER "Владимир Михайлович Зазнобин. Видеоархив"
    INDEX 01 78:43:51
  TRACK 316 AUDIO
    TITLE "01:18:56.95238"
    PERFORMER "Владимир Михайлович Зазнобин. Видеоархив"
    INDEX 01 78:56:71
  TRACK 317 AUDIO
    TITLE "01:19:11.11739"
    PERFORMER "Владимир Михайлович Зазнобин. Видеоархив"
    INDEX 01 79:11:09
  TRACK 318 AUDIO
    TITLE "01:19:25.07902"
    PERFORMER "Владимир Михайлович Зазнобин. Видеоархив"
    INDEX 01 79:25:06
  TRACK 319 AUDIO
    TITLE "01:19:40.18354"
    PERFORMER "Владимир Михайлович Зазнобин. Видеоархив"
    INDEX 01 79:40:14
  TRACK 320 AUDIO
    TITLE "01:19:57.10431"
    PERFORMER "Владимир Михайлович Зазнобин. Видеоархив"
    INDEX 01 79:57:08
  TRACK 321 AUDIO
    TITLE "01:20:10.52397"
    PERFORMER "Владимир Михайлович Зазнобин. Видеоархив"
    INDEX 01 80:10:39
  TRACK 322 AUDIO
    TITLE "01:20:26.22803"
    PERFORMER "Владимир Михайлович Зазнобин. Видеоархив"
    INDEX 01 80:26:17
  TRACK 323 AUDIO
    TITLE "01:20:44.45329"
    PERFORMER "Владимир Михайлович Зазнобин. Видеоархив"
    INDEX 01 80:44:34
  TRACK 324 AUDIO
    TITLE "01:20:57.60732"
    PERFORMER "Владимир Михайлович Зазнобин. Видеоархив"
    INDEX 01 80:57:46
  TRACK 325 AUDIO
    TITLE "01:21:13.09263"
    PERFORMER "Владимир Михайлович Зазнобин. Видеоархив"
    INDEX 01 81:13:07
  TRACK 326 AUDIO
    TITLE "01:21:27.64683"
    PERFORMER "Владимир Михайлович Зазнобин. Видеоархив"
    INDEX 01 81:27:49
  TRACK 327 AUDIO
    TITLE "01:21:51.45558"
    PERFORMER "Владимир Михайлович Зазнобин. Видеоархив"
    INDEX 01 81:51:34
  TRACK 328 AUDIO
    TITLE "01:22:08.11766"
    PERFORMER "Владимир Михайлович Зазнобин. Видеоархив"
    INDEX 01 82:08:09
  TRACK 329 AUDIO
    TITLE "01:22:23.15159"
    PERFORMER "Владимир Михайлович Зазнобин. Видеоархив"
    INDEX 01 82:23:11
  TRACK 330 AUDIO
    TITLE "01:22:42.87456"
    PERFORMER "Владимир Михайлович Зазнобин. Видеоархив"
    INDEX 01 82:42:66
  TRACK 331 AUDIO
    TITLE "01:22:56.71635"
    PERFORMER "Владимир Михайлович Зазнобин. Видеоархив"
    INDEX 01 82:56:54
  TRACK 332 AUDIO
    TITLE "01:23:10.43463"
    PERFORMER "Владимир Михайлович Зазнобин. Видеоархив"
    INDEX 01 83:10:33
  TRACK 333 AUDIO
    TITLE "01:23:23.81435"
    PERFORMER "Владимир Михайлович Зазнобин. Видеоархив"
    INDEX 01 83:23:61
  TRACK 334 AUDIO
    TITLE "01:23:41.21254"
    PERFORMER "Владимир Михайлович Зазнобин. Видеоархив"
    INDEX 01 83:41:16
  TRACK 335 AUDIO
    TITLE "01:23:56.16889"
    PERFORMER "Владимир Михайлович Зазнобин. Видеоархив"
    INDEX 01 83:56:13
  TRACK 336 AUDIO
    TITLE "01:24:15.92435"
    PERFORMER "Владимир Михайлович Зазнобин. Видеоархив"
    INDEX 01 84:15:69
